<?xml version="1.0" encoding="UTF-8" standalone="no"?>
<svg
   xmlns:dc="http://purl.org/dc/elements/1.1/"
   xmlns:cc="http://creativecommons.org/ns#"
   xmlns:rdf="http://www.w3.org/1999/02/22-rdf-syntax-ns#"
   xmlns:svg="http://www.w3.org/2000/svg"
   xmlns="http://www.w3.org/2000/svg"
   xmlns:sodipodi="http://sodipodi.sourceforge.net/DTD/sodipodi-0.dtd"
   xmlns:inkscape="http://www.inkscape.org/namespaces/inkscape"
   version="1.1"
   id="svg833"
   width="599.18317"
   height="583.85089"
   viewBox="0 0 599.18317 583.85089"
   sodipodi:docname="SIE_logo.svg"
   inkscape:version="1.0.2-2 (e86c870879, 2021-01-15)">
  <metadata
     id="metadata839">
    <rdf:RDF>
      <cc:Work
         rdf:about="">
        <dc:format>image/svg+xml</dc:format>
        <dc:type
           rdf:resource="http://purl.org/dc/dcmitype/StillImage" />
        <dc:title></dc:title>
      </cc:Work>
    </rdf:RDF>
  </metadata>
  <defs
     id="defs837" />
  <sodipodi:namedview
     pagecolor="#ffffff"
     bordercolor="#666666"
     borderopacity="1"
     objecttolerance="10"
     gridtolerance="10"
     guidetolerance="10"
     inkscape:pageopacity="0"
     inkscape:pageshadow="2"
     inkscape:window-width="1920"
     inkscape:window-height="1009"
     id="namedview835"
     showgrid="false"
     inkscape:zoom="0.2134375"
     inkscape:cx="2004.1595"
     inkscape:cy="604.55258"
     inkscape:window-x="-8"
     inkscape:window-y="-8"
     inkscape:window-maximized="1"
     inkscape:current-layer="g841"
     fit-margin-top="0"
     fit-margin-left="0"
     fit-margin-right="0"
     fit-margin-bottom="0" />
  <g
     inkscape:groupmode="layer"
     inkscape:label="Image"
     id="g841"
     transform="translate(-500.3115,-109.56343)">
    <path
       style="fill:#e79751"
       d="m 535.90011,455.5098 c -24.20723,-7.74378 -39.02829,-31.51666 -34.90167,-55.98205 2.68504,-15.91875 13.32133,-30.33741 27.3007,-37.00915 7.96934,-3.80342 13.42775,-5.04914 22.25833,-5.0798 14.1407,-0.0491 25.14413,4.59469 35.4601,14.96529 9.35523,9.40478 14.97044,22.53664 14.97044,35.01026 0,21.47853 -15.69127,42.1538 -36.87101,48.58232 -6.52459,1.98036 -21.30129,1.72539 -28.21689,-0.48687 z m 27.45208,-1.04816 c 21.45083,-6.13438 35.59416,-24.68075 35.64976,-46.74807 0.0424,-16.82097 -7.43648,-31.09902 -21.17745,-40.43033 -24.79026,-16.83474 -58.6328,-7.47038 -71.58339,19.80737 -3.66935,7.72872 -3.71451,7.97555 -3.719,20.32374 -0.005,12.4164 0.0205,12.55128 3.74296,20.16668 10.94606,22.39356 34.30914,33.39453 57.08712,26.88061 z m 470.16531,0.72362 c -12.7174,-4.39006 -23.3348,-13.62054 -29.0678,-25.27091 -4.2872,-8.71222 -5.82576,-16.76974 -5.08556,-26.63319 1.63756,-21.8225 18.09516,-40.48668 39.65336,-44.97023 3.0376,-0.63175 9.3055,-0.91813 14,-0.63965 36.8409,2.18536 58.4752,43.55228 39.4076,75.35129 -6.4767,10.80117 -14.8324,17.61633 -27.0244,22.04177 -8.6453,3.13808 -22.9853,3.19246 -31.8832,0.12092 z m 29.1447,-0.88245 c 9.0775,-2.79601 14.6235,-6.15661 21.4871,-13.02028 15.3272,-15.32714 18.2361,-38.64456 7.2689,-58.26687 -9.3893,-16.79927 -30.9424,-26.97235 -50.0921,-23.64344 -15.6836,2.72637 -29.0385,12.98622 -36.0687,27.70967 -3.7066,7.76282 -3.7399,7.94432 -3.7399,20.41366 0,13.58974 1.165,17.79142 7.602,27.4188 11.6456,17.41752 33.8441,25.45589 53.5427,19.38846 z M 788.51757,225.465 c -16.00323,-2.65006 -31.38808,-13.22514 -39.89895,-27.42533 -6.09271,-10.16557 -8.08106,-17.57858 -8.08033,-30.12532 9.9e-4,-16.95331 4.91103,-28.84448 16.97928,-41.12053 14.52468,-14.77476 34.95381,-20.50642 54.90399,-15.40403 11.06164,2.8291 18.98975,7.3575 27.12641,15.49416 23.11818,23.11818 23.10933,58.92237 -0.0203,82.03557 -7.39341,7.38816 -15.33164,12.22351 -24.47853,14.9104 -6.65102,1.95373 -19.7372,2.7602 -26.53161,1.63508 z m 30,-4.50353 c 18.0873,-7.37038 29.62414,-20.1396 34.67379,-38.37767 8.76039,-31.64031 -11.65836,-64.13914 -44.38163,-70.63854 -9.6623,-1.9191 -11.80047,-1.91139 -20.91949,0.0754 -11.23413,2.4476 -21.25283,7.76994 -28.96055,15.38501 -11.97372,11.82977 -16.91212,23.69191 -16.91212,40.62325 0,15.93179 4.48323,27.32637 15.14674,38.49703 7.41545,7.76811 13.16484,11.52253 22.95646,14.99083 7.791,2.75966 9.22648,2.94982 19.8968,2.63568 9.86895,-0.29054 12.49281,-0.74312 18.5,-3.19099 z"
       id="path855" />
    <path
       style="fill:#188acb"
       d="m 748.01757,683.06481 c -3.57501,-5.55543 -8.42269,-12.27594 -10.77264,-14.93448 -2.34996,-2.65854 -4.0109,-5.25722 -3.69098,-5.77485 0.31991,-0.51762 0.21759,-0.94281 -0.22736,-0.94486 -0.44496,-0.002 -3.05226,-2.81456 -5.79399,-6.25 -5.18492,-6.49682 -20.1111,-24.41751 -21.95644,-26.36138 -0.58223,-0.6133 -4.20859,-4.60419 -8.05859,-8.86863 -3.85,-4.26444 -13.26805,-13.88764 -20.92899,-21.38489 -18.41489,-18.02141 -20.65331,-20.12738 -21.42101,-20.15341 -0.3575,-0.0121 -2.77256,-1.92463 -5.3668,-4.25 -8.03733,-7.20434 -10.15815,-8.94387 -14.0332,-11.51021 -2.0625,-1.36594 -3.75,-2.76387 -3.75,-3.10652 0,-0.34266 -1.24086,-1.17227 -2.75748,-1.84359 -2.65022,-1.1731 -7.12467,-4.53254 -11.69193,-8.77836 -1.18962,-1.1059 -4.15214,-2.9059 -6.58337,-4 -2.43123,-1.09411 -7.13095,-3.75626 -10.44382,-5.91591 -6.14855,-4.00821 -23.63866,-13.27184 -29.03289,-15.37726 -1.64478,-0.64197 -3.66551,-1.60381 -4.49051,-2.13741 -0.825,-0.53361 -5.47756,-2.43267 -10.33902,-4.22014 -9.29355,-3.41706 -9.57416,-4.6214 -1.11098,-4.76827 2.2275,-0.0387 4.4775,-0.48416 5,-0.99 0.5225,-0.50584 3.425,-1.58391 6.45,-2.3957 9.38063,-2.51739 15.25112,-4.98453 22,-9.24574 3.575,-2.25724 7.9625,-4.95142 9.75,-5.98707 1.7875,-1.03565 3.25,-2.21435 3.25,-2.61935 0,-0.40499 2.02075,-2.12666 4.49055,-3.82593 7.56401,-5.20417 22.2251,-25.64104 26.08214,-36.35725 3.20927,-8.91651 4.26809,-12.35307 5.4378,-17.64925 0.66811,-3.025 1.58994,-6.48074 2.04852,-7.67941 0.45859,-1.19868 1.3689,-9.52368 2.02292,-18.5 0.99719,-13.68623 0.93945,-19.14533 -0.35769,-33.82059 -0.85076,-9.625 -1.86814,-18.85 -2.26086,-20.5 -0.56324,-2.36645 -0.45193,-2.7538 0.52711,-1.83418 0.68263,0.64119 1.75152,2.03726 2.37533,3.10235 1.0381,1.77249 4.63836,7.24213 17.59558,26.73183 6.14459,9.24242 12.83626,20.62595 13.22636,22.5 0.17173,0.825 0.53865,1.725 0.81537,2 1.25093,1.24316 6.70886,10.84316 7.95949,14 0.76261,1.925 2.23411,4.73113 3.27,6.23585 1.90496,2.76715 18.76738,37.2267 18.76738,38.3525 0,0.33516 0.675,2.1399 1.5,4.01052 9.15184,20.75105 17.89487,44.06859 17.67956,47.15113 -0.0864,1.2375 0.2878,2.25 0.83164,2.25 0.54384,0 0.9888,0.68111 0.9888,1.51357 0,0.83246 0.41679,2.29496 0.92619,3.25 1.38029,2.58777 7.07381,21.52534 7.07381,23.52864 0,0.95421 0.39476,2.51632 0.87724,3.47136 1.44061,2.85156 3.09728,8.61736 4.71232,16.40053 0.83723,4.03475 1.96991,9.1359 2.51706,11.3359 2.24671,9.03359 4.92544,23.68368 5.57684,30.5 0.28909,3.025 0.85212,5.725 1.25118,6 0.76891,0.52987 4.32624,28.721 6.05693,48 1.01784,11.33816 1.55264,30.82803 0.86266,31.43806 -0.19483,0.17224 -3.27923,-4.23217 -6.85423,-9.7876 z m 95.38063,4.59954 c 0.34556,-3.1625 0.61429,-8.225 0.59717,-11.25 -0.0337,-5.94983 1.35468,-23.09906 3.03587,-37.5 0.57787,-4.95 1.28211,-11.1632 1.56497,-13.80711 0.28286,-2.64391 0.94338,-5.93571 1.46782,-7.3151 0.52445,-1.37939 0.95354,-4.33899 0.95354,-6.57687 0,-2.23788 0.42535,-5.69609 0.94525,-7.6849 0.5199,-1.98881 1.68312,-7.66602 2.58494,-12.61602 3.36981,-18.49626 15.6906,-64.77776 19.43363,-73 0.50076,-1.1 1.21381,-3.125 1.58455,-4.5 0.37076,-1.375 1.23028,-3.85 1.91005,-5.5 1.15701,-2.80837 4.40691,-11.84116 6.92594,-19.25 0.60776,-1.7875 1.4449,-3.25 1.86032,-3.25 0.41542,0 0.75531,-0.68856 0.75531,-1.53013 0,-1.76314 3.79581,-11.07229 11.81248,-28.96987 6.49564,-14.50181 26.02477,-51.93614 32.34482,-62 9.81065,-15.62223 18.77862,-29.28296 23.20182,-35.34288 l 4.85911,-6.65712 -0.62123,6 c -0.34168,3.3 -1.05105,9.15 -1.57639,13 -1.21437,8.89965 -1.16924,33.57251 0.0805,44 1.8749,15.64377 2.10305,17.01077 2.99586,17.95 0.49668,0.5225 0.90305,2.36586 0.90305,4.09636 0,1.7305 0.64425,4.453 1.43166,6.05 2.40109,4.86983 5.57323,13.40364 4.98232,13.40364 -0.30626,0 0.10322,0.66006 0.90995,1.46679 0.80674,0.80674 3.08281,4.35652 5.05796,7.8884 3.80529,6.80449 6.74347,10.49113 15.61807,19.5965 14.41006,14.78471 31.69026,23.24226 58.39456,28.58039 3.4,0.67965 2.5382,1.86636 -2.3946,3.2975 -6.6657,1.93387 -26.3574,10.80372 -35.5,15.99036 -2.75,1.56011 -6.6749,3.75037 -8.722,4.86725 -4.00786,2.1867 -10.05756,6.08933 -21.52496,13.88573 -3.98588,2.70989 -10.06088,6.83357 -13.5,9.16373 -3.43913,2.33015 -6.70296,4.82287 -7.25296,5.53937 -0.55,0.7165 -4.25212,3.91481 -8.22695,7.10736 -3.97481,3.19255 -8.9248,7.36978 -11,9.28275 -2.07518,1.91297 -5.72487,5.13317 -8.11045,7.156 -2.38556,2.02283 -4.86055,4.23329 -5.5,4.91213 -0.63942,0.67885 -4.98761,5.18309 -9.6626,10.00943 -8.80666,9.09175 -22.89274,24.42717 -29.62847,32.25631 -2.12934,2.475 -4.11821,4.725 -4.41971,5 -0.30151,0.275 -1.62982,2.075 -2.95182,4 -1.322,1.925 -2.68093,3.725 -3.01981,4 -0.33889,0.275 -2.38802,2.76368 -4.55362,5.53039 -2.16558,2.76672 -4.48846,5.69172 -5.16194,6.5 -3.74949,4.50003 -12.63187,16.94055 -18.36347,25.71961 -2.24424,3.4375 -4.32083,6.25 -4.61464,6.25 -0.29381,0 -0.25145,-2.5875 0.0941,-5.75 z m -44.72149,-7.9925 c -0.29763,-0.48157 -0.85225,-4.44901 -1.23248,-8.81654 -0.38024,-4.36753 -1.01443,-8.39096 -1.40931,-8.94096 -0.3949,-0.55 -1.226,-3.7 -1.84692,-7 -0.62091,-3.3 -1.8645,-9.6 -2.76351,-14 -3.03209,-14.8398 -3.437,-16.98741 -4.05361,-21.5 -0.3382,-2.475 -0.93868,-4.95 -1.33442,-5.5 -0.39574,-0.55 -1.2639,-3.925 -1.92925,-7.5 -0.66535,-3.575 -1.61134,-8.075 -2.1022,-10 -0.49086,-1.925 -1.10839,-4.625 -1.37229,-6 -0.2639,-1.375 -1.42129,-6.325 -2.57197,-11 -1.15069,-4.675 -2.51733,-10.525 -3.03697,-13 -1.25149,-5.9607 -7.77341,-31.67436 -9.02211,-35.571 -0.54125,-1.68905 -0.9841,-4.18655 -0.9841,-5.55 0,-1.36345 -0.41279,-2.9065 -0.91732,-3.429 -0.50451,-0.5225 -1.1403,-2.3 -1.41283,-3.95 -0.27255,-1.65 -1.20975,-4.96908 -2.08269,-7.37573 -0.87295,-2.40665 -1.58716,-5.45025 -1.58716,-6.76357 0,-1.31331 -0.4028,-3.16923 -0.89512,-4.12427 -0.49231,-0.95504 -1.84226,-5.11143 -2.99986,-9.23643 -1.15761,-4.125 -3.26504,-11.55 -4.68318,-16.5 -1.41813,-4.95 -3.71306,-13.05 -5.09983,-18 -1.38679,-4.95 -2.88009,-9.9 -3.31848,-11 -1.18485,-2.97305 -4.54423,-13.36662 -5.97954,-18.5 -0.69201,-2.475 -2.09021,-6.75 -3.1071,-9.5 -1.01689,-2.75 -3.95045,-11.075 -6.51901,-18.5 -3.96768,-11.46947 -7.60031,-21.69276 -10.83749,-30.5 -0.40431,-1.1 -2.94581,-7.49526 -5.64775,-14.21169 -2.70195,-6.71642 -4.91264,-13.12892 -4.91264,-14.25 0,-1.12107 -0.40115,-2.03831 -0.89143,-2.03831 -0.49027,0 -1.64808,-1.9125 -2.57288,-4.25 -3.66147,-9.25461 -11.06413,-25.74203 -15.67621,-34.91452 -2.67271,-5.31548 -4.85948,-10.37798 -4.85948,-11.25 0,-0.87201 -0.39752,-1.58548 -0.88337,-1.58548 -0.48586,0 -1.13739,-0.7875 -1.44786,-1.75 -0.31047,-0.9625 -3.05959,-6.25 -6.10916,-11.75 -3.04956,-5.5 -6.02617,-11.11584 -6.61469,-12.47965 -0.58853,-1.3638 -1.40268,-2.7138 -1.80924,-3 -0.40657,-0.28619 -3.1544,-4.57035 -6.10631,-9.52035 -2.95191,-4.95 -7.01337,-11.25 -9.02545,-14 -12.98406,-17.74575 -15.98776,-21.59625 -20.87293,-26.75739 -2.99724,-3.16657 -5.26299,-5.94394 -5.03499,-6.17194 0.5321,-0.53211 14.76225,0.98938 21.85333,2.33655 6.57053,1.24828 12.28911,3.07127 25.70092,8.19302 16.61854,6.34634 49.24734,22.62739 50.18308,25.04025 0.18334,0.47273 0.96701,0.85951 1.74149,0.85951 0.77449,0 4.39132,2.925 8.0374,6.5 3.64607,3.575 6.92649,6.5 7.28981,6.5 0.36332,0 3.34649,2.74296 6.62927,6.09548 3.28279,3.35251 9.5687,8.81786 13.9687,12.14523 4.4,3.32737 8.45,6.57099 9,7.20806 0.55,0.63707 3.7,2.87847 7,4.98089 3.3,2.10242 7.85817,5.06826 10.12927,6.59076 2.2711,1.52249 5.0836,3.07106 6.25,3.44126 1.1664,0.3702 2.12073,1.09277 2.12073,1.60571 0,0.51293 2.25899,0.93261 5.01998,0.93261 3.99654,0 6.7998,-0.92056 13.75,-4.51537 12.9767,-6.71186 18.9778,-10.17272 26.58856,-15.33372 3.7722,-2.558 8.30449,-5.55091 10.07176,-6.65091 4.08205,-2.54079 11.96304,-8.74115 12.41005,-9.7636 0.18719,-0.42816 1.53719,-1.40646 3,-2.17399 1.46281,-0.76753 7.15965,-5.49124 12.65965,-10.49712 9.62746,-8.76254 16.0617,-13.59655 23.5,-17.65543 1.925,-1.05042 3.725,-2.19351 4,-2.54019 0.78347,-0.98769 17.25368,-8.60413 24.73919,-11.44033 7.41035,-2.80773 26.8651,-8.10073 34.76081,-9.45729 2.75,-0.47248 6.24402,-1.16318 7.7645,-1.5349 l 2.76449,-0.67585 -2.76449,3.28527 c -1.52048,1.80689 -4.36111,5.1231 -6.31253,7.36935 -1.95142,2.24624 -6.42783,8.35908 -9.94758,13.58408 -13.90104,20.63581 -12.63014,18.63904 -17.77121,27.9212 -1.39482,2.51834 -2.80539,4.8038 -3.13461,5.0788 -0.69017,0.57651 -2.67373,4.20662 -10.65517,19.5 -5.93215,11.36669 -6.68849,12.88425 -13.95507,28 -7.24404,15.06885 -10.94125,23.3801 -16.90408,38 -3.14049,7.7 -6.56191,16.025 -7.60315,18.5 -1.77465,4.21832 -3.25147,8.20267 -12.41692,33.5 -6.96812,19.23254 -9.31691,26.09042 -13.01478,38 -2.04927,6.6 -4.31122,13.8 -5.02657,16 -2.91751,8.97258 -13.68104,45.98779 -16.62885,57.18572 -4.19259,15.92647 -8.08505,30.91582 -8.91079,34.31428 -0.46773,1.925 -1.77812,7.325 -2.91199,12 -1.13386,4.675 -2.73967,11.80699 -3.56847,15.84886 -0.82879,4.04188 -1.73894,7.72431 -2.02254,8.18319 -0.53815,0.87075 -1.52986,5.3499 -3.97819,17.96795 -0.8004,4.125 -2.61305,12.675 -4.02813,19 -1.41508,6.325 -3.03643,13.975 -3.60301,17 -1.43181,7.64458 -2.59464,13.64346 -3.77991,19.5 -2.59834,12.83876 -3.26116,16.47589 -4.18386,22.95834 -1.0361,7.27917 -1.35506,8.24388 -2.24795,6.79916 z"
       id="path853" />
    <path
       style="fill:#e9730a"
       d="m 537.13352,454.37873 c -13.62343,-4.01775 -24.23755,-13.23213 -30.86845,-26.7977 -3.72245,-7.6154 -3.74748,-7.75028 -3.74295,-20.16668 0.004,-12.34819 0.0496,-12.59502 3.71899,-20.32374 12.95059,-27.27775 46.79313,-36.64211 71.58339,-19.80737 21.01356,14.27004 27.45101,41.9761 14.92669,64.24274 -10.99466,19.54708 -34.32358,29.1327 -55.61767,22.85275 z m 499.99628,0.45507 c -14.9215,-4.0129 -26.154,-13.95429 -33.1485,-29.33825 -2.2007,-4.84011 -2.4638,-6.76239 -2.4638,-18 0,-12.46934 0.033,-12.65084 3.7399,-20.41366 12.0888,-25.3177 40.6184,-35.29146 65.7601,-22.98924 29.489,14.42945 36.2356,54.08615 13.1318,77.18988 -6.8636,6.86367 -12.4096,10.22427 -21.4871,13.02028 -8.0001,2.46413 -17.6017,2.66381 -25.5324,0.53099 z M 780.12077,221.51678 c -9.79162,-3.4683 -15.54101,-7.22272 -22.95646,-14.99083 -10.66351,-11.17066 -15.14674,-22.56524 -15.14674,-38.49703 0,-16.93134 4.9384,-28.79348 16.91211,-40.62326 7.70772,-7.61507 17.72642,-12.93741 28.96056,-15.38501 9.11901,-1.98678 11.25719,-1.99449 20.91949,-0.0754 26.90114,5.34303 46.48733,28.91694 46.50144,55.96909 0.0122,23.39095 -14.16043,43.82434 -36.7936,53.04712 -6.00719,2.44787 -8.63105,2.90045 -18.5,3.19099 -10.67032,0.31414 -12.10581,0.12398 -19.8968,-2.63568 z"
       id="path849" />
  </g>
</svg>
